<svg width="65" height="65" viewBox="0 0 65 65" fill="none" xmlns="http://www.w3.org/2000/svg">
<path d="M36.5521 36.5702L33.8445 43.6575C33.76 43.8574 33.76 44.0812 33.8445 44.2815L38.4872 56.4875L43.8843 53.5173L37.4186 36.5702C37.3844 36.4868 37.3247 36.4152 37.2475 36.3646C37.1702 36.3141 37.0788 36.2871 36.9855 36.2871C36.8919 36.2871 36.8005 36.3141 36.7232 36.3646C36.646 36.4152 36.5866 36.4868 36.5521 36.5702ZM41.9674 24.6308C41.9345 24.546 41.8752 24.4727 41.7979 24.4211C41.7204 24.3691 41.6284 24.3413 41.5341 24.3413C41.4399 24.3413 41.3477 24.3691 41.2702 24.4211C41.1929 24.4727 41.1338 24.546 41.101 24.6308L38.3933 31.7145C38.3088 31.9145 38.3088 32.1385 38.3933 32.3385L46.0214 52.3287L51.4041 49.3585L41.9674 24.6135V24.6308Z" fill="white"/>
<path d="M32.4045 8.74971C32.5416 8.74971 32.6705 8.78436 32.7908 8.85368L53.6788 20.5123C53.7972 20.5762 53.8953 20.6694 53.9632 20.7821C54.0311 20.8949 54.0664 21.0231 54.0651 21.1534V43.8329C54.0659 43.9623 54.0303 44.09 53.9622 44.2023C53.8943 44.3143 53.7964 44.4068 53.6788 44.4707L32.7908 56.1742C32.6726 56.2375 32.5395 56.2707 32.4045 56.2707C32.2695 56.2707 32.1363 56.2375 32.0182 56.1742L11.1302 44.4913C11.0114 44.4274 10.9128 44.3336 10.8448 44.2202C10.7768 44.1069 10.7419 43.978 10.7439 43.8468V21.1534C10.7439 20.8831 10.8991 20.6474 11.1302 20.5123L32.0182 8.85368C32.1326 8.77979 32.2665 8.73889 32.4045 8.73584V8.74971ZM32.4045 5.76575C31.6789 5.76575 30.9352 5.95636 30.2853 6.31332L9.76917 17.6461C9.12639 18.0008 8.59216 18.5116 8.22018 19.1273C7.84821 19.7429 7.65155 20.4417 7.65002 21.1534V43.8329C7.65002 45.2746 8.4551 46.6263 9.76917 47.354L30.2853 58.6869C30.929 59.0454 31.6599 59.2342 32.4045 59.2342C33.1488 59.2342 33.8799 59.0454 34.5237 58.6869L55.0398 47.354C55.687 47.0009 56.2249 46.4886 56.5971 45.8695C56.9698 45.2508 57.1636 44.5475 57.159 43.8329V21.1534C57.159 19.7117 56.3538 18.3601 55.0398 17.6461L34.5237 6.31332C33.8778 5.95922 33.1482 5.77061 32.4045 5.76575Z" fill="white"/>
<path d="M18.8372 52.3583L20.7217 47.4127L24.5122 50.4278L20.9743 53.5472L18.8372 52.3583Z" fill="white"/>
<path d="M30.6924 19.1355H25.4756C25.2839 19.1395 25.0982 19.1998 24.9433 19.3083C24.7884 19.4167 24.6718 19.5681 24.6092 19.742L13.472 49.346L18.8402 52.3611L31.1255 19.7593C31.1523 19.6894 31.1608 19.6143 31.1509 19.5405C31.141 19.4667 31.113 19.3961 31.0686 19.335C31.0245 19.2738 30.9654 19.2238 30.8967 19.1891C30.828 19.1543 30.7518 19.136 30.6743 19.1355H30.6924ZM39.7898 19.1355H34.5914C34.4013 19.1385 34.2168 19.1967 34.062 19.3026C33.9075 19.4084 33.7899 19.5568 33.7249 19.7281L20.9738 53.5048L26.3602 56.5199L40.2229 19.7455C40.2638 19.6431 40.2641 19.5299 40.2245 19.4272C40.1844 19.3245 40.1072 19.2393 40.0064 19.1875C39.9395 19.1537 39.8652 19.1358 39.7898 19.1355Z" fill="white"/>
</svg>
