<svg width="65" height="65" viewBox="0 0 65 65" fill="none" xmlns="http://www.w3.org/2000/svg">
<path d="M32.5669 5.76575V25.5244L49.275 32.9975L32.5669 5.76575ZM32.5669 5.76575L15.8585 32.9943L32.5669 25.5244V5.76575ZM32.5669 45.8008V59.2342L49.275 36.1101L32.5669 45.8008ZM32.5669 59.2342V45.8008L15.8585 36.1101L32.5669 59.2342Z" fill="white"/>
<path d="M32.5669 42.6876L49.275 32.997L32.5669 25.524V42.6876ZM15.8585 32.997L32.5669 42.6876V25.524L15.8585 32.997Z" fill="white"/>
<path fill-rule="evenodd" clip-rule="evenodd" d="M32.5669 42.6881L15.8585 32.9975L32.5669 5.76575L49.275 32.9943L32.5669 42.6881ZM16.972 32.2083L32.3049 7.22541V25.3903L16.972 32.2083ZM16.7443 32.8884L32.3049 25.9766V41.9115L16.7443 32.8884ZM32.8382 25.9766V41.9115L48.3831 32.8884L32.8382 25.9766ZM32.8382 25.3903L48.1708 32.2083L32.8382 7.22541V25.3903Z" fill="white"/>
<path fill-rule="evenodd" clip-rule="evenodd" d="M32.5669 45.5918L15.8585 36.1009L32.5669 59.2342L49.275 36.0977L32.5669 45.5918ZM17.7299 37.7693L32.3017 46.0596V57.9553L17.7299 37.7693ZM32.835 46.0596V57.9553L47.4036 37.7693L32.835 46.0596Z" fill="white"/>
</svg>
