<svg width="65" height="65" viewBox="0 0 65 65" fill="none" xmlns="http://www.w3.org/2000/svg">
<path d="M45.2074 42.0559L57.8896 34.8216C58.562 34.4371 58.9774 33.7244 58.9774 32.9595V18.4907C58.9774 17.7258 58.562 17.0131 57.8896 16.6288L45.2074 9.39437C44.535 9.01007 43.7001 9.01381 43.0318 9.39437L30.3491 16.6288C29.6767 17.0131 29.2613 17.7258 29.2613 18.4907V44.3467L20.367 49.4171L11.4726 44.3467V34.2019L20.367 29.1315L26.2323 32.4783V25.6729L21.4547 22.9455C21.1261 22.759 20.7484 22.6582 20.367 22.6582C19.9855 22.6582 19.6078 22.759 19.2793 22.9455L6.59668 30.1803C5.92442 30.5644 5.50897 31.2769 5.50897 32.0418V46.5108C5.50897 47.2757 5.92442 47.9882 6.59668 48.3723L19.2793 55.6072C19.9515 55.9876 20.7824 55.9876 21.4547 55.6072L34.1373 48.3723C34.8097 47.9882 35.2251 47.2757 35.2251 46.5108V20.6547L35.3834 20.5651L44.1156 15.5842L53.0101 20.6547V30.7994L44.1156 35.8698L38.2576 32.5307V39.3359L43.0278 42.0559C43.7001 42.4363 44.5348 42.4363 45.2031 42.0559H45.2074Z" fill="white"/>
</svg>
