<svg width="65" height="65" viewBox="0 0 65 65" fill="none" xmlns="http://www.w3.org/2000/svg">
<path d="M51.7784 20.3298C51.4453 20.6361 51.0109 20.8083 50.5583 20.8132H7.71736C6.19693 20.8132 5.42891 19.0745 6.48151 18.057L13.5184 11.2736C13.8454 10.9578 14.2802 10.778 14.7347 10.7706H57.7434C59.2793 10.7706 60.0318 12.525 58.9635 13.5464L51.7784 20.3298ZM51.7784 53.7636C51.4432 54.0641 51.0085 54.2307 50.5583 54.2315H7.71736C6.19693 54.2315 5.42891 52.5082 6.48151 51.4907L13.5184 44.6879C13.8463 44.3759 14.2821 44.2024 14.7347 44.2043H57.7434C59.2793 44.2043 60.0318 45.943 58.9635 46.9605L51.7784 53.7636ZM51.7784 27.9632C51.4432 27.6625 51.0085 27.4962 50.5583 27.4954H7.71736C6.19693 27.4954 5.42891 29.2184 6.48151 30.2359L13.5184 37.0389C13.8505 37.3442 14.2835 37.5164 14.7347 37.5223H57.7434C59.2793 37.5223 60.0318 35.7835 58.9635 34.766L51.7784 27.9632Z" fill="white"/>
</svg>
